<mxfile host="app.diagrams.net" modified="2023-01-22T12:47:49.281Z" agent="5.0 (Windows NT 10.0; Win64; x64) AppleWebKit/537.36 (KHTML, like Gecko) Chrome/109.0.0.0 Safari/537.36" etag="m79dG2lv1zX-01aub39L" version="20.8.10" type="github">
  <diagram name="Page-1" id="My-2xTrYva6srRfOJkQC">
    <mxGraphModel dx="1235" dy="656" grid="1" gridSize="10" guides="1" tooltips="1" connect="1" arrows="1" fold="1" page="1" pageScale="1" pageWidth="827" pageHeight="1169" math="0" shadow="0">
      <root>
        <mxCell id="0" />
        <mxCell id="1" parent="0" />
        <mxCell id="f9AED7nIDXmfU-T_w36b-6" value="S4" style="edgeStyle=orthogonalEdgeStyle;rounded=0;orthogonalLoop=1;jettySize=auto;html=1;entryX=0;entryY=0.5;entryDx=0;entryDy=0;" edge="1" parent="1" source="f9AED7nIDXmfU-T_w36b-1" target="f9AED7nIDXmfU-T_w36b-2">
          <mxGeometry x="0.2308" y="10" relative="1" as="geometry">
            <mxPoint as="offset" />
          </mxGeometry>
        </mxCell>
        <mxCell id="f9AED7nIDXmfU-T_w36b-1" value="Hydration &lt;br&gt;Reactor" style="rounded=1;whiteSpace=wrap;html=1;absoluteArcSize=1;arcSize=14;strokeWidth=2;" vertex="1" parent="1">
          <mxGeometry x="170" y="190" width="100" height="100" as="geometry" />
        </mxCell>
        <mxCell id="f9AED7nIDXmfU-T_w36b-7" value="S5" style="edgeStyle=orthogonalEdgeStyle;rounded=0;orthogonalLoop=1;jettySize=auto;html=1;entryX=0.5;entryY=0;entryDx=0;entryDy=0;" edge="1" parent="1" source="f9AED7nIDXmfU-T_w36b-2" target="f9AED7nIDXmfU-T_w36b-3">
          <mxGeometry x="0.3997" y="10" relative="1" as="geometry">
            <Array as="points">
              <mxPoint x="470" y="330" />
              <mxPoint x="450" y="330" />
            </Array>
            <mxPoint y="1" as="offset" />
          </mxGeometry>
        </mxCell>
        <mxCell id="f9AED7nIDXmfU-T_w36b-18" value="S7" style="edgeStyle=none;rounded=0;orthogonalLoop=1;jettySize=auto;html=1;" edge="1" parent="1">
          <mxGeometry y="-10" relative="1" as="geometry">
            <mxPoint x="140" y="240" as="targetPoint" />
            <mxPoint x="450" y="120" as="sourcePoint" />
            <Array as="points">
              <mxPoint x="450" y="120" />
              <mxPoint x="140" y="120" />
            </Array>
            <mxPoint x="1" as="offset" />
          </mxGeometry>
        </mxCell>
        <mxCell id="f9AED7nIDXmfU-T_w36b-25" value="S6" style="edgeStyle=none;rounded=0;orthogonalLoop=1;jettySize=auto;html=1;" edge="1" parent="1" source="f9AED7nIDXmfU-T_w36b-2">
          <mxGeometry x="0.1429" y="-10" relative="1" as="geometry">
            <mxPoint x="450" y="120" as="targetPoint" />
            <mxPoint as="offset" />
          </mxGeometry>
        </mxCell>
        <mxCell id="f9AED7nIDXmfU-T_w36b-2" value="Flash&lt;br&gt;Separator" style="rounded=1;whiteSpace=wrap;html=1;absoluteArcSize=1;arcSize=14;strokeWidth=2;" vertex="1" parent="1">
          <mxGeometry x="400" y="190" width="100" height="100" as="geometry" />
        </mxCell>
        <mxCell id="f9AED7nIDXmfU-T_w36b-8" value="S9" style="edgeStyle=orthogonalEdgeStyle;rounded=0;orthogonalLoop=1;jettySize=auto;html=1;entryX=0;entryY=0.5;entryDx=0;entryDy=0;" edge="1" parent="1" source="f9AED7nIDXmfU-T_w36b-3" target="f9AED7nIDXmfU-T_w36b-4">
          <mxGeometry x="-0.1111" y="10" relative="1" as="geometry">
            <mxPoint as="offset" />
          </mxGeometry>
        </mxCell>
        <mxCell id="f9AED7nIDXmfU-T_w36b-15" value="S10" style="edgeStyle=none;rounded=0;orthogonalLoop=1;jettySize=auto;html=1;entryX=0.5;entryY=1;entryDx=0;entryDy=0;" edge="1" parent="1" source="f9AED7nIDXmfU-T_w36b-3" target="f9AED7nIDXmfU-T_w36b-1">
          <mxGeometry x="-0.5484" y="-10" relative="1" as="geometry">
            <Array as="points">
              <mxPoint x="220" y="420" />
            </Array>
            <mxPoint x="-1" as="offset" />
          </mxGeometry>
        </mxCell>
        <mxCell id="f9AED7nIDXmfU-T_w36b-3" value="Decanter" style="rounded=1;whiteSpace=wrap;html=1;absoluteArcSize=1;arcSize=14;strokeWidth=2;" vertex="1" parent="1">
          <mxGeometry x="400" y="370" width="100" height="100" as="geometry" />
        </mxCell>
        <mxCell id="f9AED7nIDXmfU-T_w36b-12" value="S14 &lt;br&gt;(SBA)" style="edgeStyle=none;rounded=0;orthogonalLoop=1;jettySize=auto;html=1;" edge="1" parent="1" source="f9AED7nIDXmfU-T_w36b-4">
          <mxGeometry x="-0.2727" y="-20" relative="1" as="geometry">
            <mxPoint x="680" y="300" as="targetPoint" />
            <Array as="points">
              <mxPoint x="640" y="300" />
            </Array>
            <mxPoint as="offset" />
          </mxGeometry>
        </mxCell>
        <mxCell id="f9AED7nIDXmfU-T_w36b-4" value="Distillation&lt;br&gt;Column" style="rounded=1;whiteSpace=wrap;html=1;absoluteArcSize=1;arcSize=14;strokeWidth=2;" vertex="1" parent="1">
          <mxGeometry x="590" y="370" width="100" height="100" as="geometry" />
        </mxCell>
        <mxCell id="f9AED7nIDXmfU-T_w36b-13" value="S13&amp;nbsp;&lt;br&gt;(SBE)" style="edgeStyle=none;rounded=0;orthogonalLoop=1;jettySize=auto;html=1;" edge="1" parent="1">
          <mxGeometry x="-0.0909" y="-30" relative="1" as="geometry">
            <mxPoint x="680" y="540" as="targetPoint" />
            <mxPoint x="640" y="470" as="sourcePoint" />
            <Array as="points">
              <mxPoint x="640" y="540" />
            </Array>
            <mxPoint y="-1" as="offset" />
          </mxGeometry>
        </mxCell>
        <mxCell id="f9AED7nIDXmfU-T_w36b-16" value="S1 (Feed)" style="endArrow=classic;html=1;rounded=0;entryX=0;entryY=0.5;entryDx=0;entryDy=0;" edge="1" parent="1" target="f9AED7nIDXmfU-T_w36b-1">
          <mxGeometry x="-0.3846" y="10" width="50" height="50" relative="1" as="geometry">
            <mxPoint x="40" y="240" as="sourcePoint" />
            <mxPoint x="400" y="290" as="targetPoint" />
            <mxPoint as="offset" />
          </mxGeometry>
        </mxCell>
        <mxCell id="f9AED7nIDXmfU-T_w36b-17" value="S2 (Water Feed)" style="endArrow=classic;html=1;rounded=0;entryX=0.5;entryY=0;entryDx=0;entryDy=0;" edge="1" parent="1" target="f9AED7nIDXmfU-T_w36b-1">
          <mxGeometry x="-0.0769" y="-10" width="50" height="50" relative="1" as="geometry">
            <mxPoint x="320" y="160" as="sourcePoint" />
            <mxPoint x="320" y="110" as="targetPoint" />
            <Array as="points">
              <mxPoint x="220" y="160" />
            </Array>
            <mxPoint as="offset" />
          </mxGeometry>
        </mxCell>
        <mxCell id="f9AED7nIDXmfU-T_w36b-19" value="S8" style="endArrow=classic;html=1;rounded=0;" edge="1" parent="1">
          <mxGeometry x="1" y="14" width="50" height="50" relative="1" as="geometry">
            <mxPoint x="450" y="120" as="sourcePoint" />
            <mxPoint x="500" y="120" as="targetPoint" />
            <mxPoint x="9" y="4" as="offset" />
          </mxGeometry>
        </mxCell>
        <mxCell id="f9AED7nIDXmfU-T_w36b-20" value="S11 (Acid)" style="endArrow=classic;html=1;rounded=0;" edge="1" parent="1">
          <mxGeometry x="-0.0909" y="10" width="50" height="50" relative="1" as="geometry">
            <mxPoint x="110" y="400" as="sourcePoint" />
            <mxPoint x="220" y="400" as="targetPoint" />
            <mxPoint x="-1" as="offset" />
          </mxGeometry>
        </mxCell>
        <mxCell id="f9AED7nIDXmfU-T_w36b-21" value="S12" style="endArrow=classic;html=1;rounded=0;" edge="1" parent="1">
          <mxGeometry y="20" width="50" height="50" relative="1" as="geometry">
            <mxPoint x="250" y="420" as="sourcePoint" />
            <mxPoint x="250" y="480" as="targetPoint" />
            <mxPoint y="-1" as="offset" />
          </mxGeometry>
        </mxCell>
        <mxCell id="f9AED7nIDXmfU-T_w36b-28" value="S3&lt;br&gt;" style="text;html=1;align=center;verticalAlign=middle;resizable=0;points=[];autosize=1;strokeColor=none;fillColor=none;" vertex="1" parent="1">
          <mxGeometry x="220" y="320" width="40" height="30" as="geometry" />
        </mxCell>
      </root>
    </mxGraphModel>
  </diagram>
</mxfile>
